<?xml version="1.0" encoding="utf-8"?>
<!-- Generator: Adobe Illustrator 22.1.0, SVG Export Plug-In . SVG Version: 6.00 Build 0)  -->
<svg version="1.1" id="Layer_1" xmlns="http://www.w3.org/2000/svg" xmlns:xlink="http://www.w3.org/1999/xlink" x="0px" y="0px"
	 viewBox="0 0 48 60" style="enable-background:new 0 0 48 60;" xml:space="preserve">
<g>
	<path d="M34.1,0H13.9c-2.2,0-4,1.8-4,4v35.8c0,1.7,1,3.1,2.5,3.7l0.6,2.4c0.3,1.2,1.4,2.1,2.7,2.1s2.4-0.9,2.7-2.1l0.5-2.1h10.3
		l0.5,2.1c0.3,1.2,1.4,2.1,2.7,2.1c1.3,0,2.4-0.9,2.7-2.1l0.6-2.4c1.5-0.6,2.5-2,2.5-3.7V4C38.1,1.8,36.3,0,34.1,0z M13.9,2h20.2
		c1.1,0,2,0.9,2,2v10.4H11.9V4C11.9,2.9,12.8,2,13.9,2z M16.4,45.4C16.3,45.8,16,46,15.6,46s-0.6-0.2-0.7-0.6l-0.4-1.7h2.2
		L16.4,45.4z M33.1,45.4C33,45.8,32.7,46,32.4,46s-0.6-0.2-0.7-0.6l-0.4-1.7h2.2L33.1,45.4z M34.1,41.8H13.9c-1.1,0-2-0.9-2-2V16.4
		h24.2v23.4C36.1,40.9,35.2,41.8,34.1,41.8z"/>
	<path d="M15,12.3c0.6,0,1-0.4,1-1V5.8c0-0.6-0.4-1-1-1s-1,0.4-1,1v5.4C14,11.8,14.5,12.3,15,12.3z"/>
	<path d="M15,19.3c-0.6,0-1,0.4-1,1v9.1c0,0.6,0.4,1,1,1s1-0.4,1-1v-9.1C16,19.8,15.6,19.3,15,19.3z"/>
</g>
</svg>
