<svg xmlns="http://www.w3.org/2000/svg" xmlns:xlink="http://www.w3.org/1999/xlink" version="1.1" x="0px" y="0px" viewBox="0 0 48 60" style="enable-background:new 0 0 48 48;" xml:space="preserve"><g><path d="M45.9,12.3l-13.2,1.9V3.7C32.7,1.6,31,0,29,0H4.6C2.6,0,1,1.6,1,3.7v37.4c0,2,1.6,3.7,3.7,3.7h0.3V47c0,0.6,0.4,1,1,1H10   c0.6,0,1-0.4,1-1v-2.2h11.6V47c0,0.6,0.4,1,1,1h4.1c0.6,0,1-0.4,1-1v-2.2H29c1.3,0,2.4-0.7,3.1-1.7l13.8,2c0.9,0,1.1-0.7,1.1-1   V13.3C46.9,12.4,46.2,12.3,45.9,12.3z M45,34.8l-12.4-1.2V16.2L45,14.4V34.8z M4.6,2H29c0.9,0,1.7,0.8,1.7,1.7v10.7H3V3.7   C3,2.8,3.7,2,4.6,2z M9,46H6.9v-1.2H9V46z M26.7,46h-2.1v-1.2h2.1V46z M29,42.8H4.6C3.7,42.8,3,42,3,41.1V16.4h27.7v24.7   C30.7,42,29.9,42.8,29,42.8z M32.7,41.2L32.7,41.2v-5.6L45,36.8V43L32.7,41.2z"/><path d="M27.4,37.6H6.2c-0.6,0-1,0.4-1,1s0.4,1,1,1h21.2c0.6,0,1-0.4,1-1S28,37.6,27.4,37.6z"/><path d="M27.4,33.5h-0.7c-0.8-3.5-0.8-6.5,0.2-10c0.2-0.6-0.3-1.3-1-1.3h-8.7c-0.6,0-1.1,0.6-1,1.2c0.9,3.6,0.9,6.6,0.2,10.1h-1.1   v-4.6c0-1.3-0.4-2.5-1.1-3.5c-0.5-0.7-0.7-1.5-0.7-2.4v-2.3c0-0.6-0.4-1-1-1h-3c-0.6,0-1,0.4-1,1v2.3c0,0.9-0.3,1.7-0.7,2.4   c-0.7,1-1.1,2.3-1.1,3.5v4.6H6.2c-0.6,0-1,0.4-1,1s0.4,1,1,1h21.2c0.6,0,1-0.4,1-1S28,33.5,27.4,33.5z M8.7,28.8   c0-0.9,0.3-1.7,0.7-2.4c0.7-1,1.1-2.3,1.1-3.5v-1.3h1v1.3c0,1.3,0.4,2.5,1.1,3.5c0.5,0.7,0.7,1.5,0.7,2.4v4.6H8.7V28.8z M18.6,33.5   c0.7-3.2,0.7-6.1,0-9.3h6.1c-0.7,3.2-0.7,6.1,0,9.3H18.6z"/><path d="M4.9,11.5c0.6,0,1-0.4,1-1V6.8c0-0.6-0.4-1-1-1s-1,0.4-1,1v3.7C3.9,11,4.3,11.5,4.9,11.5z"/></g><text x="0" y="63" fill="#000000" font-size="5px" font-weight="bold" font-family="'Helvetica Neue', Helvetica, Arial-Unicode, Arial, Sans-serif">Created by Vectors Market</text><text x="0" y="68" fill="#000000" font-size="5px" font-weight="bold" font-family="'Helvetica Neue', Helvetica, Arial-Unicode, Arial, Sans-serif">from the Noun Project</text></svg>